<?xml version="1.0" encoding="UTF-8" standalone="no"?>
<!DOCTYPE svg PUBLIC "-//W3C//DTD SVG 1.1//EN"
 "http://www.w3.org/Graphics/SVG/1.1/DTD/svg11.dtd">
<!-- Generated by graphviz version 13.1.2 (20250808.2320)
 -->
<!-- Title: G Pages: 1 -->
<svg width="269pt" height="388pt"
 viewBox="0.00 0.00 269.00 388.00" xmlns="http://www.w3.org/2000/svg" xmlns:xlink="http://www.w3.org/1999/xlink">
<g id="graph0" class="graph" transform="scale(1 1) rotate(0) translate(4 383.63)">
<title>G</title><style>.edge>path:hover{stroke-width:8}</style>
<polygon fill="white" stroke="none" points="-4,4 -4,-383.63 265.41,-383.63 265.41,4 -4,4"/>
<!-- qnty -->
<g id="node1" class="node">
<title>qnty</title><style>.edge>path:hover{stroke-width:8}</style>
<polygon fill="blue" stroke="black" points="206.44,-36 152.44,-36 152.44,0 206.44,0 206.44,-36"/>
<text xml:space="preserve" text-anchor="middle" x="179.44" y="-14.12" font-family="Helvetica,sans-Serif" font-size="10.00" fill="white">qnty</text>
</g>
<!-- qnty_expressions -->
<g id="node2" class="node">
<title>qnty_expressions</title><style>.edge>path:hover{stroke-width:8}</style>
<ellipse fill="#c24747" stroke="black" cx="48.44" cy="-280.32" rx="48.44" ry="21.57"/>
<text xml:space="preserve" text-anchor="middle" x="48.44" y="-282.07" font-family="Helvetica,sans-Serif" font-size="10.00" fill="#ffffff">qnty.</text>
<text xml:space="preserve" text-anchor="middle" x="48.44" y="-270.82" font-family="Helvetica,sans-Serif" font-size="10.00" fill="#ffffff">expressions</text>
</g>
<!-- qnty_expressions&#45;&gt;qnty -->
<g id="edge1" class="edge">
<title>qnty_expressions&#45;&gt;qnty</title><style>.edge>path:hover{stroke-width:8}</style>
<path fill="none" stroke="black" d="M62.87,-259.34C70.3,-248.71 79.26,-235.27 86.44,-222.75"/>
<path fill="none" stroke="black" d="M86.44,-221.75C104.12,-190.88 90.58,-176.32 105.44,-144 117.54,-117.66 136.78,-119.21 143.44,-91"/>
<path fill="none" stroke="black" d="M143.44,-89C146.48,-73.93 153.8,-58.59 161.05,-46.12"/>
<polygon fill="#c24747" stroke="black" points="163.98,-48.04 166.24,-37.68 158.02,-44.37 163.98,-48.04"/>
</g>
<!-- qnty_problems_Problem -->
<g id="node4" class="node">
<title>qnty_problems_Problem</title><style>.edge>path:hover{stroke-width:8}</style>
<polygon fill="blue" stroke="black" points="172.81,-185.75 114.06,-185.75 114.06,-144 172.81,-144 172.81,-185.75"/>
<text xml:space="preserve" text-anchor="middle" x="143.44" y="-172.25" font-family="Helvetica,sans-Serif" font-size="10.00" fill="white">qnty.</text>
<text xml:space="preserve" text-anchor="middle" x="143.44" y="-161" font-family="Helvetica,sans-Serif" font-size="10.00" fill="white">problems.</text>
<text xml:space="preserve" text-anchor="middle" x="143.44" y="-149.75" font-family="Helvetica,sans-Serif" font-size="10.00" fill="white">Problem</text>
</g>
<!-- qnty_expressions&#45;&gt;qnty_problems_Problem -->
<g id="edge2" class="edge">
<title>qnty_expressions&#45;&gt;qnty_problems_Problem</title><style>.edge>path:hover{stroke-width:8}</style>
<path fill="none" stroke="black" d="M86.44,-221.75C92.22,-211.65 100.35,-202.16 108.66,-193.97"/>
<polygon fill="#c24747" stroke="black" points="110.91,-196.65 115.84,-187.27 106.14,-191.54 110.91,-196.65"/>
</g>
<!-- qnty_problems -->
<g id="node3" class="node">
<title>qnty_problems</title><style>.edge>path:hover{stroke-width:8}</style>
<ellipse fill="#b65353" stroke="black" cx="216.44" cy="-90" rx="44.97" ry="18"/>
<text xml:space="preserve" text-anchor="middle" x="216.44" y="-86.12" font-family="Helvetica,sans-Serif" font-size="10.00" fill="#ffffff">qnty.problems</text>
</g>
<!-- qnty_problems&#45;&gt;qnty -->
<g id="edge3" class="edge">
<title>qnty_problems&#45;&gt;qnty</title><style>.edge>path:hover{stroke-width:8}</style>
<path fill="none" stroke="black" d="M207.48,-72.05C203.41,-64.35 198.48,-55.03 193.9,-46.36"/>
<polygon fill="#b65353" stroke="black" points="197.04,-44.82 189.28,-37.61 190.85,-48.09 197.04,-44.82"/>
</g>
<!-- qnty_problems_Problem&#45;&gt;qnty -->
<g id="edge4" class="edge">
<title>qnty_problems_Problem&#45;&gt;qnty</title><style>.edge>path:hover{stroke-width:8}</style>
<path fill="none" stroke="black" d="M140.98,-143.79C139.76,-128.99 139.31,-108.49 143.44,-91"/>
</g>
<!-- qnty_quantities -->
<g id="node5" class="node">
<title>qnty_quantities</title><style>.edge>path:hover{stroke-width:8}</style>
<polygon fill="blue" stroke="black" points="172.44,-298.32 114.44,-298.32 114.44,-262.32 172.44,-262.32 172.44,-298.32"/>
<text xml:space="preserve" text-anchor="middle" x="143.44" y="-282.07" font-family="Helvetica,sans-Serif" font-size="10.00" fill="white">qnty.</text>
<text xml:space="preserve" text-anchor="middle" x="143.44" y="-270.82" font-family="Helvetica,sans-Serif" font-size="10.00" fill="white">quantities</text>
</g>
<!-- qnty_quantities&#45;&gt;qnty -->
<g id="edge5" class="edge">
<title>qnty_quantities&#45;&gt;qnty</title><style>.edge>path:hover{stroke-width:8}</style>
<path fill="none" stroke="black" d="M200.44,-163.88C193.66,-123.32 133.99,-131.02 143.44,-91"/>
<path fill="none" stroke="black" d="M162.44,-221.75C169.58,-192.58 205.38,-195.5 200.44,-165.88"/>
</g>
<!-- qnty_quantities&#45;&gt;qnty_problems_Problem -->
<g id="edge6" class="edge">
<title>qnty_quantities&#45;&gt;qnty_problems_Problem</title><style>.edge>path:hover{stroke-width:8}</style>
<path fill="none" stroke="black" d="M162.44,-221.75C164.46,-213.47 163.17,-204.67 160.49,-196.57"/>
<polygon fill="blue" stroke="black" points="163.79,-195.38 156.75,-187.46 157.31,-198.04 163.79,-195.38"/>
<path fill="none" stroke="black" d="M150.02,-262.21C154.08,-251.1 159.13,-236.23 162.44,-222.75"/>
</g>
<!-- qnty_quantities__field_qnty_generated -->
<g id="node6" class="node">
<title>qnty_quantities__field_qnty_generated</title><style>.edge>path:hover{stroke-width:8}</style>
<polygon fill="blue" stroke="black" points="199.06,-379.63 87.81,-379.63 87.81,-337.88 199.06,-337.88 199.06,-379.63"/>
<text xml:space="preserve" text-anchor="middle" x="143.44" y="-366.13" font-family="Helvetica,sans-Serif" font-size="10.00" fill="white">qnty.</text>
<text xml:space="preserve" text-anchor="middle" x="143.44" y="-354.88" font-family="Helvetica,sans-Serif" font-size="10.00" fill="white">quantities.</text>
<text xml:space="preserve" text-anchor="middle" x="143.44" y="-343.63" font-family="Helvetica,sans-Serif" font-size="10.00" fill="white">_field_qnty_generated</text>
</g>
<!-- qnty_quantities__field_qnty_generated&#45;&gt;qnty -->
<g id="edge7" class="edge">
<title>qnty_quantities__field_qnty_generated&#45;&gt;qnty</title><style>.edge>path:hover{stroke-width:8}</style>
<path fill="none" stroke="black" d="M160.51,-337.56C168.14,-327.46 176.5,-314.69 181.44,-301.88 203.4,-244.94 210.49,-226.08 200.44,-165.88"/>
</g>
<!-- qnty_quantities__field_qnty_generated&#45;&gt;qnty_quantities -->
<g id="edge8" class="edge">
<title>qnty_quantities__field_qnty_generated&#45;&gt;qnty_quantities</title><style>.edge>path:hover{stroke-width:8}</style>
<path fill="none" stroke="black" d="M143.44,-337.67C143.44,-329.25 143.44,-319.29 143.44,-310.1"/>
<polygon fill="blue" stroke="black" points="146.94,-310.19 143.44,-300.19 139.94,-310.19 146.94,-310.19"/>
</g>
</g>
</svg>
