<?xml version="1.0" encoding="UTF-8" standalone="no"?>
<!DOCTYPE svg PUBLIC "-//W3C//DTD SVG 1.1//EN"
 "http://www.w3.org/Graphics/SVG/1.1/DTD/svg11.dtd">
<!-- Generated by graphviz version 13.1.2 (20250808.2320)
 -->
<!-- Title: G Pages: 1 -->
<svg width="207pt" height="663pt"
 viewBox="0.00 0.00 207.00 663.00" xmlns="http://www.w3.org/2000/svg" xmlns:xlink="http://www.w3.org/1999/xlink">
<g id="graph0" class="graph" transform="scale(1 1) rotate(0) translate(4 659.22)">
<title>G</title><style>.edge>path:hover{stroke-width:8}</style>
<polygon fill="white" stroke="none" points="-4,4 -4,-659.22 203.11,-659.22 203.11,4 -4,4"/>
<!-- src_qnty -->
<g id="node1" class="node">
<title>src_qnty</title><style>.edge>path:hover{stroke-width:8}</style>
<ellipse fill="#b34c4c" stroke="black" cx="84.51" cy="-18" rx="30.32" ry="18"/>
<text xml:space="preserve" text-anchor="middle" x="84.51" y="-14.12" font-family="Helvetica,sans-Serif" font-size="10.00" fill="#ffffff">src.qnty</text>
</g>
<!-- src_qnty_dimension -->
<g id="node2" class="node">
<title>src_qnty_dimension</title><style>.edge>path:hover{stroke-width:8}</style>
<ellipse fill="#db2f2f" stroke="black" cx="156.51" cy="-625.7" rx="42.6" ry="29.52"/>
<text xml:space="preserve" text-anchor="middle" x="156.51" y="-633.07" font-family="Helvetica,sans-Serif" font-size="10.00" fill="#ffffff">src.</text>
<text xml:space="preserve" text-anchor="middle" x="156.51" y="-621.82" font-family="Helvetica,sans-Serif" font-size="10.00" fill="#ffffff">qnty.</text>
<text xml:space="preserve" text-anchor="middle" x="156.51" y="-610.57" font-family="Helvetica,sans-Serif" font-size="10.00" fill="#ffffff">dimension</text>
</g>
<!-- src_qnty_unit -->
<g id="node5" class="node">
<title>src_qnty_unit</title><style>.edge>path:hover{stroke-width:8}</style>
<ellipse fill="#cc3333" stroke="black" cx="122.51" cy="-542.17" rx="40.53" ry="18"/>
<text xml:space="preserve" text-anchor="middle" x="122.51" y="-538.3" font-family="Helvetica,sans-Serif" font-size="10.00" fill="#ffffff">src.qnty.unit</text>
</g>
<!-- src_qnty_dimension&#45;&gt;src_qnty_unit -->
<g id="edge1" class="edge">
<title>src_qnty_dimension&#45;&gt;src_qnty_unit</title><style>.edge>path:hover{stroke-width:8}</style>
<path fill="none" stroke="black" d="M145,-597.1C141.46,-588.62 137.57,-579.29 134.03,-570.81"/>
<polygon fill="#db2f2f" stroke="black" points="137.31,-569.57 130.23,-561.69 130.85,-572.26 137.31,-569.57"/>
</g>
<!-- src_qnty_variable -->
<g id="node7" class="node">
<title>src_qnty_variable</title><style>.edge>path:hover{stroke-width:8}</style>
<ellipse fill="#c82323" stroke="black" cx="125.51" cy="-386.65" rx="35.18" ry="29.52"/>
<text xml:space="preserve" text-anchor="middle" x="125.51" y="-394.03" font-family="Helvetica,sans-Serif" font-size="10.00" fill="#ffffff">src.</text>
<text xml:space="preserve" text-anchor="middle" x="125.51" y="-382.78" font-family="Helvetica,sans-Serif" font-size="10.00" fill="#ffffff">qnty.</text>
<text xml:space="preserve" text-anchor="middle" x="125.51" y="-371.53" font-family="Helvetica,sans-Serif" font-size="10.00" fill="#ffffff">variable</text>
</g>
<!-- src_qnty_dimension&#45;&gt;src_qnty_variable -->
<g id="edge2" class="edge">
<title>src_qnty_dimension&#45;&gt;src_qnty_variable</title><style>.edge>path:hover{stroke-width:8}</style>
<path fill="none" stroke="black" d="M169.71,-597.37C182.86,-566.76 199.97,-515.62 191.51,-471.17"/>
<path fill="none" stroke="black" d="M191.51,-469.17C188.11,-448.14 174.02,-429.3 159.73,-415.04"/>
<polygon fill="#db2f2f" stroke="black" points="162.17,-412.52 152.48,-408.23 157.38,-417.63 162.17,-412.52"/>
</g>
<!-- src_qnty_variables -->
<g id="node8" class="node">
<title>src_qnty_variables</title><style>.edge>path:hover{stroke-width:8}</style>
<ellipse fill="#a13535" stroke="black" cx="84.51" cy="-101.52" rx="38.89" ry="29.52"/>
<text xml:space="preserve" text-anchor="middle" x="84.51" y="-108.9" font-family="Helvetica,sans-Serif" font-size="10.00" fill="#ffffff">src.</text>
<text xml:space="preserve" text-anchor="middle" x="84.51" y="-97.65" font-family="Helvetica,sans-Serif" font-size="10.00" fill="#ffffff">qnty.</text>
<text xml:space="preserve" text-anchor="middle" x="84.51" y="-86.4" font-family="Helvetica,sans-Serif" font-size="10.00" fill="#ffffff">variables</text>
</g>
<!-- src_qnty_dimension&#45;&gt;src_qnty_variables -->
<g id="edge3" class="edge">
<title>src_qnty_dimension&#45;&gt;src_qnty_variables</title><style>.edge>path:hover{stroke-width:8}</style>
<path fill="none" stroke="black" d="M191.51,-469.17C172.07,-348.84 202.39,-309.23 153.51,-197.57"/>
</g>
<!-- src_qnty_equation -->
<g id="node3" class="node">
<title>src_qnty_equation</title><style>.edge>path:hover{stroke-width:8}</style>
<ellipse fill="#b83d3d" stroke="black" cx="84.51" cy="-196.57" rx="37.3" ry="29.52"/>
<text xml:space="preserve" text-anchor="middle" x="84.51" y="-203.94" font-family="Helvetica,sans-Serif" font-size="10.00" fill="#ffffff">src.</text>
<text xml:space="preserve" text-anchor="middle" x="84.51" y="-192.69" font-family="Helvetica,sans-Serif" font-size="10.00" fill="#ffffff">qnty.</text>
<text xml:space="preserve" text-anchor="middle" x="84.51" y="-181.44" font-family="Helvetica,sans-Serif" font-size="10.00" fill="#ffffff">equation</text>
</g>
<!-- src_qnty_equation&#45;&gt;src_qnty_variables -->
<g id="edge4" class="edge">
<title>src_qnty_equation&#45;&gt;src_qnty_variables</title><style>.edge>path:hover{stroke-width:8}</style>
<path fill="none" stroke="black" d="M84.51,-166.64C84.51,-159.11 84.51,-150.86 84.51,-142.86"/>
<polygon fill="#b83d3d" stroke="black" points="88.01,-142.95 84.51,-132.95 81.01,-142.95 88.01,-142.95"/>
</g>
<!-- src_qnty_expression -->
<g id="node4" class="node">
<title>src_qnty_expression</title><style>.edge>path:hover{stroke-width:8}</style>
<ellipse fill="#c43131" stroke="black" cx="80.51" cy="-291.61" rx="44.72" ry="29.52"/>
<text xml:space="preserve" text-anchor="middle" x="80.51" y="-298.98" font-family="Helvetica,sans-Serif" font-size="10.00" fill="#ffffff">src.</text>
<text xml:space="preserve" text-anchor="middle" x="80.51" y="-287.73" font-family="Helvetica,sans-Serif" font-size="10.00" fill="#ffffff">qnty.</text>
<text xml:space="preserve" text-anchor="middle" x="80.51" y="-276.48" font-family="Helvetica,sans-Serif" font-size="10.00" fill="#ffffff">expression</text>
</g>
<!-- src_qnty_expression&#45;&gt;src_qnty_equation -->
<g id="edge5" class="edge">
<title>src_qnty_expression&#45;&gt;src_qnty_equation</title><style>.edge>path:hover{stroke-width:8}</style>
<path fill="none" stroke="black" d="M81.75,-261.68C82.07,-254.15 82.43,-245.9 82.77,-237.91"/>
<polygon fill="#c43131" stroke="black" points="86.27,-238.13 83.2,-227.99 79.27,-237.83 86.27,-238.13"/>
</g>
<!-- src_qnty_expression&#45;&gt;src_qnty_variables -->
<g id="edge6" class="edge">
<title>src_qnty_expression&#45;&gt;src_qnty_variables</title><style>.edge>path:hover{stroke-width:8}</style>
<path fill="none" stroke="black" d="M49.06,-270.23C27.22,-253.27 2.82,-227.17 7.51,-197.57"/>
</g>
<!-- src_qnty_units -->
<g id="node6" class="node">
<title>src_qnty_units</title><style>.edge>path:hover{stroke-width:8}</style>
<ellipse fill="#d92626" stroke="black" cx="53.51" cy="-470.17" rx="43.64" ry="18"/>
<text xml:space="preserve" text-anchor="middle" x="53.51" y="-466.3" font-family="Helvetica,sans-Serif" font-size="10.00" fill="#ffffff">src.qnty.units</text>
</g>
<!-- src_qnty_unit&#45;&gt;src_qnty_units -->
<g id="edge7" class="edge">
<title>src_qnty_unit&#45;&gt;src_qnty_units</title><style>.edge>path:hover{stroke-width:8}</style>
<path fill="none" stroke="black" d="M106.85,-525.29C98.03,-516.34 86.83,-504.98 76.98,-494.99"/>
<polygon fill="#cc3333" stroke="black" points="79.68,-492.74 70.17,-488.07 74.69,-497.65 79.68,-492.74"/>
</g>
<!-- src_qnty_unit&#45;&gt;src_qnty_variable -->
<g id="edge8" class="edge">
<title>src_qnty_unit&#45;&gt;src_qnty_variable</title><style>.edge>path:hover{stroke-width:8}</style>
<path fill="none" stroke="black" d="M122.85,-523.86C123.3,-500.78 124.11,-459.21 124.72,-428.04"/>
<polygon fill="#cc3333" stroke="black" points="128.21,-428.25 124.91,-418.18 121.22,-428.11 128.21,-428.25"/>
</g>
<!-- src_qnty_units&#45;&gt;src_qnty_expression -->
<g id="edge9" class="edge">
<title>src_qnty_units&#45;&gt;src_qnty_expression</title><style>.edge>path:hover{stroke-width:8}</style>
<path fill="none" stroke="black" d="M7.51,-385.65C5.76,-360.07 23.08,-337.31 41.29,-320.7"/>
<polygon fill="#d92626" stroke="black" points="43.2,-323.67 48.51,-314.5 38.64,-318.36 43.2,-323.67"/>
</g>
<!-- src_qnty_units&#45;&gt;src_qnty_variable -->
<g id="edge10" class="edge">
<title>src_qnty_units&#45;&gt;src_qnty_variable</title><style>.edge>path:hover{stroke-width:8}</style>
<path fill="none" stroke="black" d="M67.73,-453.07C76.22,-443.45 87.3,-430.91 97.49,-419.38"/>
<polygon fill="#d92626" stroke="black" points="100.04,-421.77 104.04,-411.96 94.8,-417.14 100.04,-421.77"/>
</g>
<!-- src_qnty_units&#45;&gt;src_qnty_variables -->
<g id="edge11" class="edge">
<title>src_qnty_units&#45;&gt;src_qnty_variables</title><style>.edge>path:hover{stroke-width:8}</style>
<path fill="none" stroke="black" d="M7.51,-385.65C1.8,-302.25 -5.57,-280.13 7.51,-197.57"/>
<path fill="none" stroke="black" d="M7.51,-195.57C12,-169.64 30.59,-146.78 48.37,-130.21"/>
<polygon fill="#d92626" stroke="black" points="50.67,-132.84 55.84,-123.59 46.03,-127.6 50.67,-132.84"/>
<path fill="none" stroke="black" d="M38.65,-452.84C26.02,-437.34 9.59,-412.75 7.51,-387.65"/>
</g>
<!-- src_qnty_variable&#45;&gt;src_qnty_equation -->
<g id="edge12" class="edge">
<title>src_qnty_variable&#45;&gt;src_qnty_equation</title><style>.edge>path:hover{stroke-width:8}</style>
<path fill="none" stroke="black" d="M153.51,-290.61C152.72,-265.22 135.91,-242.23 119.08,-225.45"/>
<polygon fill="#c82323" stroke="black" points="121.67,-223.08 111.99,-218.77 116.87,-228.18 121.67,-223.08"/>
<path fill="none" stroke="black" d="M138.5,-359C146.15,-340.73 154.22,-315.71 153.51,-292.61"/>
</g>
<!-- src_qnty_variable&#45;&gt;src_qnty_expression -->
<g id="edge13" class="edge">
<title>src_qnty_variable&#45;&gt;src_qnty_expression</title><style>.edge>path:hover{stroke-width:8}</style>
<path fill="none" stroke="black" d="M112.49,-358.74C108.18,-349.83 103.31,-339.75 98.68,-330.19"/>
<polygon fill="#c82323" stroke="black" points="101.97,-328.95 94.47,-321.47 95.67,-331.99 101.97,-328.95"/>
</g>
<!-- src_qnty_variable&#45;&gt;src_qnty_variables -->
<g id="edge14" class="edge">
<title>src_qnty_variable&#45;&gt;src_qnty_variables</title><style>.edge>path:hover{stroke-width:8}</style>
<path fill="none" stroke="black" d="M153.51,-290.61C152.23,-249.28 170.09,-235.45 153.51,-197.57"/>
<path fill="none" stroke="black" d="M153.51,-195.57C143.76,-173.29 127.82,-151.3 113.72,-134.29"/>
<polygon fill="#c82323" stroke="black" points="116.69,-132.38 107.54,-127.03 111.36,-136.91 116.69,-132.38"/>
</g>
<!-- src_qnty_variables&#45;&gt;src_qnty -->
<g id="edge15" class="edge">
<title>src_qnty_variables&#45;&gt;src_qnty</title><style>.edge>path:hover{stroke-width:8}</style>
<path fill="none" stroke="black" d="M84.51,-71.55C84.51,-63.86 84.51,-55.56 84.51,-47.88"/>
<polygon fill="#a13535" stroke="black" points="88.01,-48 84.51,-38 81.01,-48 88.01,-48"/>
</g>
</g>
</svg>
